<?xml version="1.0" standalone="no"?>
<!DOCTYPE svg PUBLIC "-//W3C//DTD SVG 20010904//EN"
 "http://www.w3.org/TR/2001/REC-SVG-20010904/DTD/svg10.dtd">
<svg version="1.0" xmlns="http://www.w3.org/2000/svg"
 width="750.000000pt" height="590.000000pt" viewBox="0 0 750.000000 590.000000"
 preserveAspectRatio="xMidYMid meet">

<g transform="translate(0.000000,590.000000) scale(0.100000,-0.100000)"
fill="#000000" stroke="none">
<path d="M2723 1743 c20 -5 20 -3 6 -58 -11 -42 -12 -43 -45 -38 -61 10 -124
-55 -124 -129 0 -50 24 -63 70 -40 19 9 36 23 38 31 3 10 -5 7 -23 -7 -40 -32
-55 -28 -55 12 0 67 41 126 87 126 18 0 23 -6 23 -25 0 -15 -6 -38 -13 -53
-15 -30 -16 -77 0 -93 11 -11 63 25 63 43 0 7 -11 1 -25 -12 -34 -32 -33 -18
10 123 19 63 35 118 35 121 0 3 -15 5 -32 5 -18 -1 -25 -3 -15 -6z"/>
<path d="M3678 1743 c18 -7 15 -29 -18 -133 -31 -99 -36 -135 -21 -144 11 -7
61 31 61 47 0 6 -7 1 -16 -12 -34 -48 -32 -1 5 122 l39 127 -32 -1 c-17 0 -25
-3 -18 -6z"/>
<path d="M3778 1743 c18 -7 15 -25 -19 -137 -17 -56 -33 -109 -35 -118 -3 -11
0 -18 8 -18 8 0 19 20 26 45 9 33 17 45 31 45 14 0 20 -10 24 -41 7 -56 19
-66 51 -45 15 9 26 22 26 28 0 6 -8 4 -19 -6 -22 -20 -26 -16 -35 37 -4 20
-12 37 -18 37 -7 0 1 14 17 30 16 17 37 30 47 30 10 0 18 5 18 10 0 22 -36 8
-72 -27 -21 -20 -40 -34 -44 -31 -3 4 5 43 19 87 l25 81 -32 -1 c-17 0 -25 -3
-18 -6z"/>
<path d="M2080 1729 c0 -4 5 -9 12 -11 12 -4 5 -43 -33 -170 -16 -52 -25 -68
-42 -71 -12 -2 5 -4 38 -4 33 -1 52 1 43 4 -21 5 -23 30 -6 84 9 33 15 39 38
39 28 0 55 -21 43 -33 -3 -4 -2 -7 4 -7 6 0 13 14 17 31 9 44 7 57 -5 37 -6
-12 -22 -18 -45 -18 -35 0 -35 1 -29 33 16 71 21 77 69 77 41 0 45 -2 48 -27
3 -27 3 -27 14 9 l12 36 -89 -1 c-49 0 -89 -4 -89 -8z"/>
<path d="M2290 1715 c0 -8 7 -15 15 -15 8 0 15 7 15 15 0 8 -7 15 -15 15 -8 0
-15 -7 -15 -15z"/>
<path d="M5078 1641 c-56 -28 -90 -130 -53 -161 9 -7 30 -13 48 -12 83 2 134
165 58 185 -11 2 -35 -3 -53 -12z m60 -40 c5 -46 -25 -110 -54 -117 -37 -9
-47 4 -42 58 9 88 89 137 96 59z"/>
<path d="M2250 1641 c0 -5 5 -11 11 -13 7 -2 4 -27 -11 -75 -12 -40 -19 -77
-16 -82 11 -18 76 18 76 42 0 6 -11 0 -25 -13 -32 -30 -33 -16 -2 79 l23 71
-28 0 c-15 0 -28 -4 -28 -9z"/>
<path d="M2360 1640 c0 -5 5 -10 10 -10 11 0 7 -25 -20 -107 -26 -78 -2 -66
40 20 34 69 78 112 97 94 4 -4 -3 -39 -16 -77 -13 -38 -21 -76 -18 -85 6 -14
9 -14 37 0 16 8 30 21 30 27 0 6 -8 4 -18 -5 -30 -28 -32 -9 -6 60 14 37 23
72 20 80 -9 21 -52 15 -86 -13 l-31 -27 7 27 c5 23 3 26 -20 26 -14 0 -26 -4
-26 -10z"/>
<path d="M2912 1625 c-36 -31 -54 -72 -50 -116 2 -27 8 -35 27 -37 13 -2 36 6
52 17 27 20 29 21 29 3 0 -10 3 -22 6 -25 8 -7 46 11 56 27 16 23 7 27 -10 5
-29 -35 -32 -11 -8 72 l22 76 -47 2 c-37 0 -54 -5 -77 -24z m85 -1 c8 -22 -36
-111 -64 -130 -32 -21 -56 -3 -46 35 9 39 41 98 55 104 26 11 49 7 55 -9z"/>
<path d="M3165 1640 c-3 -5 -1 -10 6 -10 9 0 10 -22 5 -85 -7 -100 1 -103 54
-20 19 30 38 55 43 55 4 0 4 -25 1 -55 -9 -77 13 -73 76 13 46 62 64 112 40
112 -5 0 -10 -8 -10 -17 0 -21 -54 -118 -71 -129 -8 -5 -10 14 -7 70 2 57 0
76 -9 76 -7 0 -13 -8 -13 -17 0 -10 -19 -43 -41 -73 l-41 -55 7 73 c6 68 5 72
-14 72 -11 0 -23 -4 -26 -10z"/>
<path d="M3471 1624 c-33 -27 -55 -84 -49 -124 4 -33 42 -38 79 -11 27 20 29
21 29 3 0 -10 3 -22 6 -25 8 -7 46 11 56 27 16 23 7 27 -10 5 -29 -35 -32 -11
-8 72 l22 76 -47 2 c-38 0 -54 -5 -78 -25z m86 0 c8 -22 -36 -111 -64 -130
-34 -22 -53 -4 -43 39 9 42 36 94 52 100 26 11 49 7 55 -9z"/>
<path d="M4020 1639 c0 -5 5 -7 10 -4 15 9 12 -7 -14 -90 -31 -97 -13 -99 34
-2 34 69 78 112 96 94 5 -4 -3 -38 -16 -76 -27 -79 -23 -107 13 -90 13 6 29
20 36 32 14 22 13 22 -11 -1 -13 -12 -27 -19 -30 -16 -4 3 5 35 18 71 14 37
23 72 20 80 -9 23 -58 15 -89 -14 l-29 -28 7 28 c6 24 5 27 -19 27 -14 0 -26
-5 -26 -11z"/>
<path d="M4272 1634 c-45 -31 -69 -123 -40 -152 28 -28 118 -2 118 35 0 11 -7
7 -21 -11 -15 -20 -29 -26 -48 -24 -22 3 -26 8 -26 36 0 32 3 35 49 50 57 20
77 42 57 66 -17 20 -60 20 -89 0z m68 -13 c0 -22 -35 -51 -62 -51 -24 0 -23
21 2 48 26 28 60 29 60 3z"/>
<path d="M4442 1625 c-36 -31 -54 -72 -50 -116 2 -27 8 -35 27 -37 13 -2 36 6
52 17 29 21 29 21 29 1 0 -13 7 -20 19 -20 21 0 51 25 51 42 0 6 -8 0 -18 -13
-29 -35 -32 -11 -8 72 l22 76 -47 2 c-37 0 -54 -5 -77 -24z m85 -2 c8 -21 -40
-114 -68 -131 -29 -18 -51 1 -42 37 9 39 41 98 55 104 26 11 49 7 55 -10z"/>
<path d="M4610 1639 c0 -5 4 -8 9 -4 20 12 20 -14 1 -81 -11 -38 -20 -72 -20
-76 0 -15 21 -8 27 10 19 57 57 131 69 136 8 3 21 3 29 0 9 -4 15 0 15 10 0
26 -36 19 -61 -11 l-22 -28 5 28 c5 24 2 27 -23 27 -16 0 -29 -5 -29 -11z"/>
<path d="M4830 1640 c0 -5 6 -10 14 -10 11 0 16 -22 21 -83 6 -68 4 -90 -9
-116 -19 -36 -44 -50 -56 -31 -10 17 -31 4 -23 -15 7 -20 47 -19 65 3 9 9 35
53 58 96 24 43 58 99 77 122 18 24 29 44 24 44 -16 0 -41 -30 -74 -89 l-32
-56 -3 73 -3 72 -29 0 c-17 0 -30 -4 -30 -10z"/>
<path d="M5228 1641 c11 -7 9 -21 -8 -79 -12 -39 -19 -76 -15 -82 11 -17 58
-11 82 12 l23 21 0 -21 c0 -11 3 -23 8 -25 14 -9 51 12 63 35 l12 23 -27 -24
-26 -24 0 22 c0 12 9 47 20 78 25 72 25 73 -5 73 -25 0 -35 -15 -14 -22 16 -5
-22 -90 -55 -123 -30 -30 -56 -33 -56 -5 0 10 11 49 24 85 l24 65 -32 0 c-20
0 -27 -3 -18 -9z"/>
<path d="M5411 1497 c-12 -15 -5 -27 16 -27 7 0 13 9 13 20 0 23 -13 26 -29 7z"/>
</g>
</svg>
